<?xml version="1.0" encoding="UTF-8"?>
<svg enable-background="new 0 0 591 591" version="1.1" viewBox="0 0 591 591" xml:space="preserve" xmlns="http://www.w3.org/2000/svg">
<style type="text/css">
	.st0{fill:#AB1224;}
</style>
<g transform="translate(0 591) scale(.1 -.1)">
	<path class="st0" d="m0 2955v-2955h5910v5910h-5910v-2955zm2240 1190 1-635h-146c-122 0-145 2-145 15 0 10 10 15 33 15 17 0 42 3 55 6l22 6v1176l-31 6c-17 3-42 6-55 6-14 0-24 6-24 15 0 15 38 20 202 23l86 2 2-635zm690 573v-63l-530 6v-1031h530v-120h-660v1270h660v-62zm250-518v-580h770v-110h-880v1270h110v-580zm280 565c0-9-9-15-22-15s-33-3-45-6l-23-6v-519c0-403 3-520 13-526 6-4 73-7 147-7 148 2 236 18 295 56 40 26 81 100 91 166 4 24 12 42 19 42 10 0 13-34 13-150l-1-150h-737v1130h125c104 0 125-2 125-15zm-645-585c0-231-1-250-17-250-14 0-18 9-18 43 0 65-19 118-55 154l-33 33h-262v24c0 24 0 24 129 28 112 3 132 6 151 23 29 26 56 87 65 148 5 34 12 47 24 47 14 0 16-25 16-250zm-1308-1667-2-638-86-2c-90-2-127 8-99 27 8 5 31 10 51 10 24 0 39 5 43 16 10 26 7 1162-3 1168-21 13-159-15-219-45-67-33-115-89-126-150-3-16-9-42-12-59-4-20-12-30-23-30-16 0-17 6-9 63 5 34 10 110 11 169l2 108h475l-3-637zm513 572v-65h-350v-1152l-62 4-63 3-3 638-2 637h480v-65zm260-575v-641l-57 3-58 3-3 638-2 637h120v-640zm320 626c0-9-18-16-55-21l-55-6v-594c0-660-6-605 71-605 32 0 39-3 39-20 0-19-7-20-145-20h-145v1280h145c117 0 145-3 145-14zm450-626v-640h-140c-133 0-140 1-140 20 0 17 7 20 50 20s50 3 55 23c3 12 4 278 3 592l-3 570-52 14c-31 8-53 20-53 27 0 11 29 14 140 14h140v-640zm700 575v-65h-540v-1020h541l-3-62-3-63h-660l-2 629c-2 345 0 632 3 637s150 9 335 9h329v-65zm610-575v-641l-62 3-63 3v1145h-355v130h480v-640zm515 532c0-59 4-135 8-169 7-59 6-63-13-63-16 0-20 7-20 31 0 52-21 107-58 149-53 62-120 91-245 104l-57 6 2-592 3-593 48-7c49-7 65-13 55-23-3-3-48-8-102-12l-96-6v1283h475v-108zm-1245-495c0-210-2-254-14-254-9 0-16 19-21 61-3 34-15 80-25 104-27 60-60 72-205 72h-115v50h124c118 0 126 1 154 25 30 25 62 98 62 141 0 33 10 54 26 54 12 0 14-43 14-253zm-723-1071c13-15 23-36 23-46 0-22-20-70-29-70-3 0-12-4-19-9-11-6-8-16 12-46 14-21 26-48 26-61 0-29 33-64 61-64 11 0 17-4 14-10-9-15-68-12-92 5-20 14-29 35-47 116-5 24-49 55-64 45-4-2-6-38-4-79 3-61 7-77 20-80 9-3-10-5-43-6-45 0-56 2-42 10 15 9 17 28 17 159 0 136-2 150-17 151-45 3 49 15 102 13 50-1 63-6 82-28zm1001 22c20 0 22-5 22-47v-46l-18 35c-31 62-102 66-146 7-31-41-31-183 0-224 43-57 121-56 156 3 11 19 21 34 22 32 2-2 1-25-2-52-2-28-7-43-12-36-6 10-15 10-44 0-75-24-155 13-188 87-55 124 29 265 147 247 22-3 50-6 63-6zm-1996-39c2-22 0-43-4-45-4-3-8 3-8 14 0 24-27 48-62 57l-28 7v-155c0-140 2-156 18-160 9-3-10-5-43-5s-52 2-42 5c15 4 17 20 17 158 0 117-3 153-12 151-40-7-61-21-74-49l-13-32 1 48 1 47h245l4-41zm179-115c40-116 59-158 74-164 14-6 1-9-40-8-33 0-52 2-43 5 15 4 15 8 1 49l-15 44h-49c-48 0-51-2-65-35-18-44-18-53 4-58 9-3-5-5-33-5-38-1-45 1-29 8 17 7 33 42 74 164 28 86 55 156 60 156 4 0 32-70 61-156zm126 149c-10-3-17-10-14-16 2-7 19-56 38-109 18-54 36-98 39-98s20 44 39 98c19 53 36 102 38 109 3 6-4 13-14 16s2 5 27 5 38-2 29-5c-10-2-34-58-69-161-29-86-56-160-59-164-4-4-33 66-65 157-39 108-64 166-75 168-9 3 11 5 44 5s52-2 42-5zm443-15c0-13 3-33 6-45 4-13 2-23-4-23-5 0-12 13-15 29-7 32-45 51-103 51h-34v-136l39 4c33 3 40 8 49 35 9 28 10 22 11-43 0-73 0-74-14-42-12 28-19 32-50 32h-36l3-77 3-78 31-3c58-6 97 11 116 48l18 35v-95l-127 1c-71 1-120 3-110 6 15 4 17 20 17 158s-2 154-17 158c-10 3 35 5 100 6 115 1 117 1 117-21zm719-25c-1-27-4-38-6-27-5 28-31 51-65 59l-28 7v-155c0-140 2-156 18-160 9-3-10-5-43-5s-52 2-42 5c15 4 17 20 17 159 0 91-4 154-10 154-25 0-64-28-76-55l-13-30-1 48v47h250l-1-47zm260 0c-1-27-4-38-6-27-2 12-12 29-22 38-22 20-110 33-120 18-3-6-6-36-6-68 0-51 2-58 21-59 35-2 64 13 64 35 0 11 3 20 8 20 4 0 8-29 8-65 0-65-12-90-18-37-3 24-8 27-43 30l-40 3 2-38c1-21 2-57 2-80l1-43h40c56 0 110 24 110 49 0 11 3 22 8 24 4 3 7-15 7-39v-44l-125 1c-69 1-117 3-107 6 15 4 17 20 17 158s-2 154-17 158c-10 3 35 5 100 6l117 1-1-47zm522-109c40-116 59-158 74-164 14-6 1-9-40-8-33 0-52 2-43 5 15 4 15 8 1 49-15 44-15 44-64 44-51 0-60-7-73-62-5-20-2-28 11-31 10-3-2-5-27-6-33 0-41 2-29 9 10 6 39 76 69 165 29 85 56 155 60 155s32-70 61-156z"/>
	<path class="st0" d="m2785 1423v-68l30 3c42 5 55 19 55 59 0 52-15 73-53 73h-33l1-67z"/>
	<path class="st0" d="m1997 1356c-9-29-17-56-17-59 0-4 18-7 40-7s40 1 40 3c0 5-39 110-43 113-2 2-11-20-20-50z"/>
	<path class="st0" d="m4067 1358c-9-30-17-58-17-61 0-4 18-7 41-7 45 0 45 2 10 84l-16 39-18-55z"/>
</g>
</svg>
