<?xml version="1.0" standalone="no"?>
<!DOCTYPE svg PUBLIC "-//W3C//DTD SVG 20010904//EN"
 "http://www.w3.org/TR/2001/REC-SVG-20010904/DTD/svg10.dtd">
<svg version="1.0" xmlns="http://www.w3.org/2000/svg"
 width="700.000000pt" height="700.000000pt" viewBox="0 0 700.000000 700.000000"
 preserveAspectRatio="xMidYMid meet">
<metadata>
Created by potrace 1.11, written by Peter Selinger 2001-2013
</metadata>
<g transform="translate(0.000000,700.000000) scale(0.100000,-0.100000)"
fill="#000000" stroke="none">
<path d="M0 3500 l0 -3500 3500 0 3500 0 0 3500 0 3500 -3500 0 -3500 0 0
-3500z m3458 2161 c8 -1 12 -23 12 -74 l0 -74 -313 3 -314 4 0 -610 0 -610
314 0 313 0 0 -70 c0 -60 -3 -70 -17 -71 -61 -3 -755 0 -758 3 -4 4 -6 500 -5
1200 l0 297 28 3 c22 2 699 2 740 -1z m288 0 l21 -1 -2 -672 c0 -370 1 -679 3
-685 3 -10 104 -13 458 -13 l454 0 0 -65 0 -65 -37 -1 c-50 -1 -962 -1 -988 0
-20 1 -20 8 -20 748 1 703 2 747 18 752 10 4 30 6 45 5 15 -1 36 -3 48 -3z
m343 -6 c23 -9 -1 -25 -50 -33 l-44 -8 0 -611 c0 -435 3 -615 11 -623 7 -7 59
-12 135 -12 292 -2 398 33 459 155 17 34 33 78 36 99 4 21 12 42 19 48 17 14
20 -13 20 -195 l0 -150 -437 -1 -436 0 0 663 c0 543 2 664 13 671 15 8 251 5
274 -3z m-1434 -739 c0 -409 -3 -748 -7 -752 -12 -11 -319 -7 -331 5 -15 15
-9 18 53 26 30 4 58 9 63 12 4 2 7 316 7 698 0 770 6 705 -68 705 -20 0 -44 4
-52 10 -37 23 28 35 205 39 l130 2 0 -745z m678 40 c0 -215 -2 -278 -13 -291
-18 -22 -26 -6 -29 57 -2 62 -31 132 -73 175 -28 29 -35 31 -97 31 -198 0
-239 2 -244 15 -13 35 23 44 183 48 47 1 99 6 116 10 43 12 80 69 100 154 10
39 22 76 27 83 25 32 30 -15 30 -282z m1107 -1355 l-6 -24 -314 -1 -315 -1 -1
-602 -1 -603 319 0 319 0 -3 -72 -3 -73 -390 0 -390 0 -3 744 c-1 529 1 747 9
752 6 3 180 7 387 8 207 1 379 5 382 8 8 7 16 -108 10 -136z m-2655 -613 c-2
-409 -4 -749 -4 -755 -1 -14 -181 -18 -214 -4 -28 11 -1 29 51 34 52 5 54 7
58 54 7 89 3 1254 -5 1341 -1 16 -26 15 -118 -4 -184 -38 -272 -114 -297 -257
-9 -52 -17 -68 -34 -65 -11 2 -16 12 -15 28 1 14 4 61 8 105 4 44 8 118 10
165 2 47 3 88 4 93 1 4 127 7 281 7 l279 0 -4 -742z m606 695 c0 -27 2 -60 3
-75 1 -19 -3 -28 -14 -29 -8 0 -102 -1 -207 -1 -189 -1 -193 -1 -193 -22 0
-12 -2 -318 -3 -681 l-2 -660 -69 3 c-39 1 -71 4 -73 5 -1 2 -4 342 -6 755
l-3 752 283 0 283 0 1 -47z m309 -713 l0 -760 -62 6 c-35 3 -65 8 -68 11 -3 2
-6 140 -7 306 -2 348 -4 1178 -4 1190 1 4 33 7 71 7 l70 0 0 -760z m375 751
c8 -14 -28 -31 -67 -31 -18 0 -39 -4 -46 -9 -19 -11 -13 -1365 6 -1398 10 -18
22 -23 57 -23 24 0 47 -5 51 -11 16 -27 -19 -33 -178 -34 l-163 0 0 750 c-1
413 0 753 2 758 6 11 331 9 338 -2z m535 -28 c1 -51 1 -1444 0 -1464 0 -13
-20 -15 -156 -14 -100 2 -159 6 -167 14 -18 18 4 32 57 35 28 1 52 9 57 17 9
15 9 1362 0 1377 -3 5 -24 15 -46 22 -117 37 -92 50 103 50 l152 0 0 -37z
m1552 25 c2 -7 4 -348 4 -758 l-1 -745 -63 2 c-35 1 -69 4 -75 6 -9 3 -12 173
-12 679 l1 675 -161 1 c-88 0 -182 1 -210 1 l-50 1 0 75 -1 75 282 0 c217 0
283 -3 286 -12z m609 5 c1 -5 2 -57 4 -118 1 -60 5 -147 9 -193 7 -82 7 -83
-15 -80 -18 2 -23 11 -26 48 -13 139 -129 249 -288 274 -22 4 -61 9 -87 12
l-48 5 0 -53 c-1 -91 1 -809 3 -1085 l1 -262 28 -6 c15 -3 41 -8 58 -11 75
-14 22 -30 -136 -39 l-64 -4 0 759 0 760 280 0 c154 0 281 -3 281 -7z m-1478
-427 c8 -21 3 -563 -5 -572 -13 -12 -17 -2 -33 80 -31 167 -59 187 -258 191
-73 2 -135 4 -139 4 -5 1 -8 14 -8 29 l0 28 133 1 c72 0 140 1 149 2 9 1 33
17 52 37 35 36 58 94 71 177 6 37 28 51 38 23z m301 -1520 c26 -3 51 -7 54
-11 9 -8 9 -85 1 -85 -4 0 -10 8 -13 18 -10 31 -52 63 -84 64 -37 1 -90 -35
-104 -71 -17 -45 -17 -159 -1 -208 18 -52 60 -83 112 -83 27 0 42 9 73 40 l38
41 0 -46 c0 -44 -1 -45 -32 -46 -18 -1 -44 -4 -58 -8 -14 -4 -43 -3 -65 1
-148 33 -207 230 -102 344 30 33 99 66 122 58 5 -2 32 -5 59 -8z m-2333 -10
c5 -63 5 -78 -2 -81 -4 -3 -10 6 -13 19 -6 23 -81 70 -96 61 -9 -6 -5 -349 4
-364 5 -7 -7 -11 -37 -11 l-45 0 7 33 c9 41 6 310 -3 326 -4 6 -13 11 -21 11
-19 0 -75 -49 -75 -65 0 -8 -3 -16 -7 -18 -5 -3 -6 19 -5 48 l4 53 144 -1 c97
0 144 -4 145 -11z m347 5 c7 0 10 -6 7 -11 -8 -12 74 -250 85 -250 4 0 10 8
13 18 3 9 22 62 42 117 19 55 34 107 32 116 -3 12 2 15 22 13 35 -3 35 -2 23
-16 -9 -12 -56 -135 -113 -296 -12 -34 -25 -65 -29 -67 -8 -5 -57 107 -80 180
-12 39 -38 101 -66 159 -16 33 -7 45 29 41 12 -1 28 -3 35 -4z m536 -2 c2 -2
6 -26 10 -54 6 -46 5 -48 -9 -31 -8 11 -15 25 -15 31 0 20 -60 47 -108 48
l-47 2 -2 -80 -3 -80 44 3 c38 3 47 8 60 35 15 32 16 32 15 -43 0 -67 -1 -73
-14 -56 -8 10 -16 23 -17 28 -2 5 -23 11 -46 14 l-43 4 6 -86 c3 -47 8 -90 11
-95 3 -5 26 -9 52 -9 53 0 107 27 117 59 11 35 21 23 19 -21 -1 -24 -2 -45 -3
-48 -1 -3 -36 -4 -78 -4 -43 1 -104 2 -136 3 -55 1 -58 2 -51 23 8 28 9 308 0
336 -5 15 -2 21 11 24 25 5 222 3 227 -3z m280 -4 c53 -35 58 -106 9 -151
l-26 -25 18 -37 c11 -20 26 -57 35 -82 12 -36 23 -49 55 -64 l39 -20 -27 -7
c-15 -4 -43 -3 -63 2 -28 8 -39 19 -53 52 -10 23 -21 57 -24 75 -4 18 -13 39
-20 46 -20 21 -55 37 -61 28 -7 -11 1 -168 9 -181 4 -7 -11 -11 -46 -11 -46 0
-50 2 -38 16 14 17 19 280 7 340 l-7 31 84 2 c63 2 90 -2 109 -14z m386 6 c0
-3 -15 -13 -33 -21 -18 -9 -40 -30 -49 -50 l-18 -35 0 56 0 56 50 0 c28 0 50
-2 50 -6z m181 3 c9 -3 15 -13 13 -27 -1 -12 -3 -31 -4 -42 -1 -18 -2 -18 -13
4 -13 27 -88 66 -97 50 -9 -13 -4 -344 4 -358 5 -7 -7 -11 -37 -11 l-45 0 7
33 c4 17 7 105 5 194 l-2 162 76 -1 c43 0 84 -2 93 -4z m319 -42 l0 -42 -28
31 c-25 28 -34 32 -88 33 l-59 1 -3 -71 c-3 -68 -2 -72 21 -76 36 -7 66 8 73
37 10 41 19 19 20 -51 1 -68 -10 -93 -21 -45 -5 22 -13 30 -37 35 -60 12 -59
14 -57 -89 l1 -95 47 1 c68 0 113 19 131 54 l15 30 3 -44 c2 -23 1 -46 -2 -49
-3 -3 -34 -5 -68 -5 -192 2 -198 3 -192 17 8 21 11 274 3 323 -7 50 -13 48
134 48 l107 0 0 -43z m-1836 -132 c31 -85 65 -167 76 -182 l21 -28 -51 0 c-28
0 -49 4 -46 8 9 15 -16 93 -33 101 -9 5 -27 7 -41 6 -14 -2 -34 -4 -46 -4 -13
-1 -26 -13 -37 -36 -20 -42 -21 -62 -4 -68 6 -3 -8 -6 -32 -6 -41 -1 -43 0
-29 17 24 27 42 68 88 202 49 143 59 165 70 154 4 -5 33 -79 64 -164z m2455
-9 c33 -90 68 -172 77 -182 16 -18 15 -19 -35 -19 -32 0 -50 4 -46 10 9 15
-17 90 -34 98 -9 4 -25 7 -36 6 -11 0 -30 -2 -42 -3 -37 -2 -79 -93 -50 -105
7 -2 -5 -5 -26 -5 l-37 -1 19 38 c11 21 41 97 66 168 56 154 66 177 76 167 5
-5 35 -82 68 -172z"/>
<path d="M3303 1756 c-4 -8 -6 -44 -5 -80 4 -65 4 -66 33 -66 54 0 81 50 63
117 -9 33 -77 54 -91 29z"/>
<path d="M2371 1623 c-26 -101 -29 -93 24 -93 44 0 46 1 39 23 -12 38 -43 107
-48 107 -3 0 -10 -17 -15 -37z"/>
<path d="M4816 1606 c-9 -30 -16 -59 -16 -65 0 -15 77 -14 82 1 5 14 -34 118
-44 118 -4 0 -14 -24 -22 -54z"/>
</g>
</svg>
